<?xml version="1.0" encoding="UTF-8"?>
<!DOCTYPE svg  PUBLIC '-//W3C//DTD SVG 20010904//EN'  'http://www.w3.org/TR/2001/REC-SVG-20010904/DTD/svg10.dtd'>
<svg width="100pt" height="30pt" version="1.0" fill="#aaaaaa" viewBox="-20 400 1100 250" xmlns="http://www.w3.org/2000/svg">
<metadata>Created by potrace 1.16, written by Peter Selinger 2001-2019</metadata>
<g transform="translate(0 1080) scale(.1 -.1)">
<path d="m9945 6683c-3-10-39-76-78-146l-72-129-65 6c-36 3-360 6-721 6h-656l-74 116-74 117-6-134c-9-174-11-1932-3-1953 6-14 84-16 781-16 853 0 823-2 946 63 120 63 254 239 273 359 4 21 11 41 15 44 12 7 12 931 0 938-4 3-11 25-15 48-10 61-57 154-116 226l-50 63-25 172c-32 225-34 237-44 237-5 0-12-8-16-17zm-245-756c19-12 43-38 54-57 20-33 21-53 24-370 3-383 1-399-71-451l-40-29h-524-523v465 465h524 523l33-23z"/>
<path d="m330 6412c0-5 195-420 434-923l433-914h238 239l433 913c238 503 433 918 433 923 0 15-477 12-487-3-4-7-143-303-308-657s-304-644-308-645c-5 0-146 295-315 657l-307 657h-242c-134 0-243-4-243-8z"/>
<path d="m2940 5495v-925h215 215l2 422 3 421 970-842 353-1h354l-154 128c-84 70-348 289-585 486-238 197-433 361-432 365 0 3 248 200 550 436l550 430-351 3-350 2-453-373-452-373-5 370-5 371-212 3-213 2v-925z"/>
<path d="m5382 6411c2-5 225-271 496-591l492-582v-334-334h215 215v333 332l488 576c268 316 493 583 501 592 12 16-8 17-300 17l-314-1-290-369c-159-203-294-368-300-366-5 1-140 167-299 369l-290 367h-309c-185 0-307-4-305-9z"/>
</g>
</svg>
